<svg xmlns="http://www.w3.org/2000/svg" viewBox="0 0 360 115" width="360" height="115">
  <rect width="100%" height="100%" fill="transparent"/>
  <!-- Iconic D-Loop Emblem -->
  <g transform="translate(4, 6)" fill="#E30613">
    <path d="M 16 68 C 16 38 36 14 74 14 C 110 14 134 36 134 60 C 134 84 110 102 74 102 L 28 102 C 21 102 16 97 16 90 L 16 68 Z"/>
    <path d="M 72 38 C 54 38 42 48 42 60 C 42 66 46 72 54 72 L 74 72 C 86 72 96 66 96 60 C 96 48 86 38 72 38 Z" fill="#ffffff"/>
    <path d="M 16 68 L 56 68 C 62 68 68 64 68 58 C 68 52 62 48 56 48 L 30 48 C 22 48 16 54 16 62 Z" fill="#E30613"/>
  </g>

  <!-- Arabic Typography -->
  <text x="350" y="44" text-anchor="end" font-size="38" font-weight="900" font-family="'Cairo', 'Segoe UI', Arial, sans-serif" fill="#E30613">
    ديموس
  </text>

  <!-- English dimos -->
  <text x="156" y="84" font-size="38" font-weight="900" font-family="'Comfortaa', 'Montserrat', 'Segoe UI', sans-serif" fill="#E30613" letter-spacing="-0.5px">
    dimös
  </text>

  <!-- Slogan -->
  <text x="156" y="106" font-size="11.5" font-weight="800" font-family="'Cairo', 'Segoe UI', Tahoma, sans-serif" fill="#E30613" letter-spacing="0.8px">
    A Style Statement Of Your Home
  </text>
</svg>
